<?xml version="1.0" standalone="no"?>
<!DOCTYPE svg PUBLIC "-//W3C//DTD SVG 20010904//EN"
 "http://www.w3.org/TR/2001/REC-SVG-20010904/DTD/svg10.dtd">
<svg version="1.0" xmlns="http://www.w3.org/2000/svg"
 width="487.000000pt" height="210.000000pt" viewBox="0 0 487.000000 210.000000"
 preserveAspectRatio="xMidYMid meet">

<g transform="translate(0.000000,210.000000) scale(0.100000,-0.100000)"
fill="#000000" stroke="none">
<path d="M2320 2089 c-53 -21 -70 -48 -70 -108 1 -34 8 -72 20 -96 11 -22 19
-45 20 -51 0 -6 11 -21 25 -34 21 -19 25 -32 24 -74 -1 -28 -4 -62 -9 -76 l-7
-25 -12 30 c-7 16 -17 52 -23 80 -6 27 -12 52 -14 54 -2 2 -11 -5 -21 -16 -10
-11 -44 -31 -76 -43 -32 -13 -65 -32 -72 -44 -45 -70 -42 -495 4 -584 17 -34
21 -53 16 -83 -4 -25 -3 -39 4 -39 6 0 11 -15 11 -33 0 -18 7 -57 15 -87 32
-112 44 -191 49 -326 9 -233 17 -308 33 -321 12 -9 12 -19 4 -49 -6 -20 -8
-41 -5 -46 3 -4 25 -8 49 -8 74 0 95 39 95 180 0 36 -7 101 -15 145 -11 62
-13 129 -8 298 9 300 20 292 49 -38 12 -141 13 -196 5 -255 -6 -41 -9 -122 -7
-179 4 -90 8 -107 28 -128 18 -20 30 -23 68 -21 50 3 62 22 39 64 -10 20 -10
27 3 41 13 15 17 64 22 293 7 330 15 472 27 485 5 5 9 30 9 57 0 30 8 63 23
90 20 40 22 59 25 238 4 196 -3 325 -17 349 -8 12 -129 61 -161 64 -11 2 -19
-20 -31 -93 l-16 -95 -23 50 c-30 67 -27 110 10 141 19 16 29 35 29 52 1 15 3
49 7 75 3 26 3 68 -1 93 -5 36 -13 49 -38 65 -35 21 -50 22 -87 8z"/>
<path d="M1622 2037 c-26 -27 -52 -143 -52 -228 0 -51 -2 -59 -19 -59 -19 0
-28 -14 -101 -145 -61 -111 -70 -131 -70 -166 0 -38 18 -62 58 -74 22 -6 23
-10 16 -71 -6 -57 -4 -67 12 -79 11 -8 27 -15 37 -15 9 0 17 -6 17 -12 0 -7
14 -119 30 -248 22 -167 32 -300 36 -460 l7 -225 -42 -29 c-22 -16 -41 -33
-41 -37 0 -5 28 -9 63 -9 l62 -1 -48 -44 -48 -44 36 -7 c54 -10 124 1 156 25
15 12 42 21 58 21 22 0 32 6 37 22 3 12 3 200 -1 418 -8 418 -2 582 21 605 22
21 17 50 -22 138 -27 61 -33 86 -26 101 56 124 72 177 72 237 0 37 -5 50 -22
62 -22 14 -23 20 -21 122 3 118 -11 163 -63 204 -38 30 -113 29 -142 -2z m154
-241 c3 -14 1 -41 -6 -60 -11 -33 -14 -36 -52 -36 -36 0 -47 -6 -84 -45 -43
-44 -64 -94 -64 -151 0 -37 -5 -43 -32 -36 -19 4 -20 10 -15 60 4 40 15 69 36
99 35 49 37 58 16 67 -23 9 -18 30 13 44 52 25 52 25 52 -4 0 -28 1 -28 57 29
32 31 61 57 65 57 4 0 10 -11 14 -24z"/>
<path d="M4364 2044 c-22 -8 -40 -14 -41 -14 -1 0 -10 -14 -18 -30 -19 -36
-12 -89 16 -136 11 -17 19 -39 19 -47 0 -25 -31 -69 -81 -115 -41 -38 -47 -48
-52 -95 -3 -31 1 -79 11 -120 13 -56 14 -75 4 -112 -16 -59 -15 -120 1 -133
12 -10 12 -27 1 -143 -4 -36 0 -79 10 -119 19 -72 21 -246 5 -305 -12 -40 -13
-135 -7 -398 3 -151 6 -158 64 -155 16 1 41 -6 54 -15 28 -19 122 -23 165 -7
40 15 30 50 -21 75 -23 11 -54 30 -70 42 l-29 22 52 1 c56 0 99 15 107 36 8
22 -23 44 -62 44 -21 0 -47 7 -59 15 -21 15 -49 75 -34 75 4 0 5 41 3 90 -4
83 -2 93 20 128 30 45 54 118 63 192 4 30 10 60 14 65 4 6 7 26 7 45 l-1 35
-78 9 c-49 6 -76 13 -74 20 2 6 1 47 -3 91 -4 44 -3 84 2 90 4 5 8 -3 8 -19 0
-35 31 -32 41 4 4 16 7 19 8 8 1 -23 18 -23 24 0 3 12 5 9 6 -8 l2 -25 15 28
c15 27 38 35 49 17 11 -17 23 -11 24 13 0 12 1 59 1 104 l1 82 53 48 c29 27
61 62 71 78 29 45 55 59 55 30 0 -8 7 -15 15 -15 11 0 15 11 15 39 0 21 6 44
13 50 20 16 42 74 63 164 21 94 14 110 -41 84 -33 -16 -35 -20 -35 -64 -1 -45
-22 -94 -33 -76 -3 4 -8 29 -12 56 -6 39 -5 47 9 47 9 0 16 7 16 15 0 18 -12
19 -62 4 -39 -10 -52 -29 -20 -29 14 0 21 -13 30 -56 10 -49 9 -59 -6 -79 -35
-48 -115 -42 -169 12 -35 35 -38 51 -12 63 49 23 54 29 61 71 5 26 4 47 -2 53
-16 16 -11 46 8 46 9 1 31 7 47 16 l30 14 -41 -4 c-40 -4 -42 -2 -58 35 -27
61 -94 87 -162 63z"/>
<path d="M3758 2029 c-46 -17 -57 -82 -32 -184 6 -27 71 -109 100 -128 15 -8
56 96 74 189 13 65 6 94 -29 121 -19 15 -75 15 -113 2z"/>
<path d="M3081 1999 c-12 -12 -20 -24 -17 -27 3 -3 15 3 26 13 11 10 37 21 58
25 l37 8 -41 1 c-28 1 -47 -5 -63 -20z"/>
<path d="M626 1975 c-25 -20 -46 -38 -46 -40 0 -23 59 -158 81 -185 37 -44 36
-59 -4 -107 -43 -52 -62 -102 -77 -197 -6 -43 -19 -97 -27 -120 -11 -28 -16
-83 -18 -176 -3 -197 -12 -256 -49 -310 -42 -62 -226 -312 -281 -382 -45 -58
-46 -58 -99 -58 -38 0 -57 -5 -68 -17 -13 -15 -38 -121 -38 -162 0 -8 28 -11
103 -9 l102 3 -2 34 c-1 24 -9 40 -30 56 -26 22 -27 24 -11 42 9 10 23 34 31
53 8 19 54 89 104 155 49 66 116 158 149 205 32 47 80 107 106 134 27 28 48
56 48 63 0 16 128 193 139 193 8 0 24 -379 26 -640 1 -85 6 -193 12 -240 5
-47 7 -89 2 -95 -4 -5 -9 -21 -11 -35 -3 -22 1 -25 31 -28 19 -2 44 -1 56 2
45 11 49 40 51 361 1 320 17 505 43 505 10 0 26 -59 41 -144 5 -32 21 -84 35
-114 15 -33 25 -73 25 -101 0 -25 5 -73 10 -106 6 -33 15 -105 20 -160 5 -55
14 -117 20 -138 10 -35 13 -37 50 -37 22 0 58 -9 80 -21 30 -16 50 -19 75 -15
45 9 44 27 -3 53 -76 44 -78 48 -107 273 -14 113 -28 259 -31 325 -6 140 -33
304 -76 465 -18 63 -33 140 -35 170 l-4 55 46 -48 c36 -38 51 -48 73 -45 24 3
27 7 30 48 3 40 -1 49 -33 80 -24 23 -35 43 -36 64 -2 51 -13 79 -40 95 -14 9
-37 24 -50 33 -14 10 -61 25 -104 34 -90 19 -115 38 -115 90 0 47 -37 141 -63
159 -36 25 -80 18 -131 -20z m81 -563 c24 -15 43 -82 43 -148 0 -67 0 -67 -66
-155 -36 -49 -70 -89 -75 -89 -24 0 11 232 52 343 22 59 25 62 46 49z"/>
<path d="M3134 1970 c-22 -9 -54 -48 -69 -85 -7 -17 -9 -15 -15 15 l-6 35 -6
-40 c-3 -22 -1 -44 3 -49 5 -6 9 -22 9 -37 0 -15 5 -31 11 -34 6 -4 8 -13 6
-19 -3 -7 9 -21 26 -31 18 -10 42 -27 55 -38 21 -20 28 -15 23 16 -1 4 15 29
34 54 32 42 35 52 35 113 0 57 -3 70 -23 88 -24 23 -48 26 -83 12z"/>
<path d="M3691 1776 c-6 -7 -38 -21 -70 -30 -32 -9 -66 -24 -75 -34 -18 -21
-34 -118 -43 -264 l-6 -97 38 -63 37 -63 -12 -98 c-6 -55 -9 -127 -5 -160 5
-47 -1 -100 -24 -222 -27 -143 -30 -184 -32 -387 -2 -125 -1 -229 2 -231 67
-55 106 -77 135 -77 74 0 82 23 29 81 -36 40 -46 83 -21 92 10 4 16 36 21 119
9 161 21 230 58 338 l32 95 7 -80 c4 -44 9 -141 12 -215 8 -173 22 -239 53
-251 12 -4 29 -6 37 -3 9 3 35 -4 58 -16 30 -15 57 -20 88 -18 57 4 59 24 5
52 -63 32 -85 66 -101 154 -7 42 -13 104 -14 137 0 56 34 333 45 363 3 7 10
65 16 128 7 84 16 124 31 150 19 33 20 46 15 232 -2 112 -10 210 -16 228 -8
22 -27 39 -61 56 -56 29 -56 28 -35 -52 23 -87 18 -102 -15 -40 -16 30 -29 63
-30 73 0 9 -7 17 -15 17 -19 0 -33 -32 -17 -38 14 -4 16 -52 3 -52 -5 0 -12
11 -15 24 -3 13 -22 48 -41 77 -19 30 -38 62 -41 71 -6 22 -18 23 -33 4z"/>
<path d="M2969 1697 c-34 -22 -61 -67 -73 -120 -5 -20 -3 -28 6 -26 27 3 38
-2 73 -32 40 -35 43 -53 16 -88 l-19 -25 -32 27 c-36 31 -76 35 -84 10 -19
-70 -17 -99 14 -162 31 -62 31 -63 19 -137 -7 -44 -9 -102 -5 -146 4 -40 10
-143 14 -228 4 -85 11 -161 15 -167 5 -7 25 -13 45 -13 l37 0 3 -123 c2 -92
-1 -135 -12 -168 -17 -46 -20 -89 -10 -126 8 -31 24 -29 24 2 0 14 4 25 9 25
12 0 51 -54 51 -70 0 -44 85 -99 130 -85 24 8 24 12 5 49 -8 15 -12 33 -8 39
3 6 -7 21 -23 34 l-29 23 1 192 2 192 31 28 c29 26 31 31 31 103 l0 75 -63 0
c-82 0 -163 24 -199 60 -23 24 -28 37 -28 80 0 47 26 199 36 209 17 17 34 -56
43 -181 2 -15 20 -8 24 10 4 19 3 21 23 -35 6 -15 8 -14 14 7 l8 25 7 -22 c8
-26 25 -31 25 -7 0 9 5 12 11 8 13 -7 9 35 -6 70 -7 16 -5 18 8 13 29 -11 20
20 -18 62 -49 53 -105 165 -105 207 0 22 -5 34 -14 34 -7 0 -16 10 -20 23 -9
35 -7 47 9 47 9 0 15 -9 15 -24 0 -15 7 -27 18 -30 46 -13 142 -26 199 -26 59
0 63 2 78 30 24 46 29 136 11 208 -20 87 -66 137 -66 75 -1 -27 -1 -28 -16 -8
-12 14 -18 16 -21 7 -3 -8 -22 3 -54 33 -43 40 -84 65 -108 65 -5 0 -23 -10
-42 -23z"/>
<path d="M3236 1138 c-3 -13 -8 -75 -11 -138 -5 -83 -4 -112 4 -104 17 16 37
142 33 207 -4 58 -18 76 -26 35z"/>
</g>
</svg>
